<svg xmlns="http://www.w3.org/2000/svg" viewBox="0 0 700 260" width="700" height="260">
  <defs>
    <style>
      .logo-text { font-family: 'Playfair Display', Georgia, serif; font-weight: 700; fill: #1d3557; }
      .tagline { font-family: 'Inter', -apple-system, sans-serif; font-weight: 400; fill: #6c757d; letter-spacing: 0.15em; }
      .icon { fill: #1d3557; }
    </style>
  </defs>
  <!-- Mountain/Chevron Icon -->
  <g transform="translate(350, 30)">
    <!-- Left peak -->
    <polygon class="icon" points="-60,100 -10,20 0,35 -50,100" />
    <!-- Right peak -->
    <polygon class="icon" points="60,100 10,20 0,35 50,100" />
    <!-- Center peak (tallest) -->
    <polygon class="icon" points="-35,100 0,0 35,100 25,100 0,15 -25,100" />
    <!-- Small figure on left peak -->
    <circle class="icon" cx="-28" cy="52" r="3" />
    <line x1="-28" y1="55" x2="-28" y2="65" stroke="#1d3557" stroke-width="1.5" />
    <line x1="-28" y1="58" x2="-24" y2="62" stroke="#1d3557" stroke-width="1.2" />
    <line x1="-28" y1="58" x2="-32" y2="54" stroke="#1d3557" stroke-width="1.2" />
    <line x1="-28" y1="65" x2="-25" y2="72" stroke="#1d3557" stroke-width="1.2" />
    <line x1="-28" y1="65" x2="-31" y2="72" stroke="#1d3557" stroke-width="1.2" />
  </g>
  <!-- Brand Name -->
  <text x="350" y="175" text-anchor="middle" class="logo-text" font-size="52">PopCornBytes</text>
  <!-- Decorative line -->
  <line x1="200" y1="195" x2="500" y2="195" stroke="#e63946" stroke-width="2" />
  <!-- Tagline -->
  <text x="350" y="225" text-anchor="middle" class="tagline" font-size="13" text-transform="uppercase">BYTE-SIZED STORIES FROM THE INTERNET AGE</text>
</svg>
